<svg version="1.1" xmlns="http://www.w3.org/2000/svg" style="display: block;" viewBox="0 0 2048 2048" width="512" height="512" preserveAspectRatio="none">
<path transform="translate(0,0)" fill="rgb(255,255,255)" d="M 0 0 L 2048 0 L 2048 2048 L 0 2048 L 0 0 z"/>
<path transform="translate(0,0)" fill="rgb(14,14,14)" d="M 972.767 31.4329 C 1022.36 29.2485 1073.87 29.9502 1123.22 35.3037 C 1181.77 41.6535 1240.56 51.3252 1297.49 66.6043 C 1498.3 121.136 1676.63 237.975 1806.81 400.304 C 1928.79 553.718 2002.21 740.036 2017.7 935.416 C 2019.48 959.368 2023.97 1001.94 2021.19 1024.31 C 2020.45 1030.28 2018.84 1037.16 2013.69 1040.9 C 2008.39 1044.76 2001.46 1045.27 1995.13 1045.67 C 1971.75 1047.13 1947.9 1046.16 1924.47 1046.15 L 1800.59 1046.14 L 1731.88 1046.1 C 1720.99 1046.07 1707.84 1047.34 1697.26 1045.19 C 1680.44 1041.76 1682.09 1026.73 1682.06 1013.17 C 1682.06 1006.03 1681.81 998.887 1681.31 991.763 C 1673.83 870.416 1638.28 755.778 1569.9 654.867 C 1473.68 511.633 1324.39 412.608 1155.01 379.675 C 980.695 344.971 799.744 381.768 652.826 481.798 C 512.198 577.589 415.4 725.337 383.738 892.518 C 350.009 1071.67 383.608 1249.06 486.844 1399.85 C 581.18 1537.65 729.719 1638.82 894.64 1669.3 C 1073.81 1702.41 1245.37 1671.64 1396.31 1567.9 L 1398.19 1566.59 C 1540.66 1468.53 1638.5 1318.02 1670.29 1148 C 1671.26 1143 1672.89 1138.39 1677.24 1135.45 C 1695.58 1133.82 1714.74 1134.92 1733.16 1134.94 L 1836.68 1135.03 L 1940.51 1135.15 C 1958.92 1135.18 1978.05 1134.11 1996.35 1135.8 C 2000.05 1136.14 2003.83 1137.32 2006.64 1139.84 C 2009.72 1142.61 2010.9 1146.42 2011.16 1150.44 C 2012.67 1173.96 2002.09 1220.24 1996.61 1244.79 C 1960.12 1409.49 1881.66 1561.96 1768.85 1687.38 C 1608.13 1866.74 1394.4 1984.43 1154.51 2014.26 C 1127.36 2017.64 1099.04 2019.09 1071.68 2020.54 C 1032.04 2022.64 992.502 2020.91 952.961 2018.23 C 736.095 2005.51 530.237 1918.45 370.05 1771.71 C 216.021 1632.72 111.033 1466.45 60.1226 1264.85 C 47.0122 1212.93 36.2734 1158.03 33.5715 1104.48 C 30.7695 1048.95 29.6917 993.709 34.0867 938.199 C 50.7439 717.097 141.464 508.07 291.586 344.893 C 436.063 185.255 638.302 79.8618 849.84 43.8939 C 890.692 36.9478 931.437 33.5011 972.767 31.4329 z"/>
</svg>